<?xml version="1.0" encoding="UTF-8" standalone="no"?>
<svg
   xmlns:dc="http://purl.org/dc/elements/1.1/"
   xmlns:cc="http://creativecommons.org/ns#"
   xmlns:rdf="http://www.w3.org/1999/02/22-rdf-syntax-ns#"
   xmlns:svg="http://www.w3.org/2000/svg"
   xmlns="http://www.w3.org/2000/svg"
   xmlns:xlink="http://www.w3.org/1999/xlink"
   xmlns:sodipodi="http://sodipodi.sourceforge.net/DTD/sodipodi-0.dtd"
   xmlns:inkscape="http://www.inkscape.org/namespaces/inkscape"
   width="800"
   height="418"
   viewBox="0 0 211.66667 110.59583"
   version="1.1"
   id="svg8"
   inkscape:version="1.0.1 (3bc2e813f5, 2020-09-07)"
   sodipodi:docname="home-og.svg"
   inkscape:export-filename="C:\Users\hiroa\Desktop\TunnyIcon.png"
   inkscape:export-xdpi="96"
   inkscape:export-ydpi="96">
  <defs
     id="defs2">
    <linearGradient
       inkscape:collect="always"
       id="linearGradient974">
      <stop
         style="stop-color:#4b4b4b;stop-opacity:1;"
         offset="0"
         id="stop970" />
      <stop
         style="stop-color:#4b4b4b;stop-opacity:0;"
         offset="1"
         id="stop972" />
    </linearGradient>
    <rect
       x="23.623512"
       y="86.178574"
       width="23.035423"
       height="17.804464"
       id="rect904" />
    <rect
       x="23.623512"
       y="86.178574"
       width="15.686012"
       height="13.229167"
       id="rect904-4" />
    <rect
       x="23.623512"
       y="86.178574"
       width="15.686012"
       height="13.229167"
       id="rect917" />
    <rect
       x="23.623512"
       y="86.178574"
       width="15.686012"
       height="13.229167"
       id="rect904-4-7" />
    <rect
       x="23.623512"
       y="86.178574"
       width="15.686012"
       height="13.229167"
       id="rect946" />
    <rect
       x="23.623512"
       y="86.178574"
       width="15.686012"
       height="13.229167"
       id="rect904-8" />
    <rect
       x="23.623512"
       y="86.178574"
       width="15.686012"
       height="13.229167"
       id="rect976" />
    <rect
       x="23.623512"
       y="86.178574"
       width="24.207069"
       height="17.041914"
       id="rect904-9" />
    <rect
       x="23.623512"
       y="86.178574"
       width="15.686012"
       height="13.229167"
       id="rect1005" />
    <rect
       x="23.623512"
       y="86.178574"
       width="15.686012"
       height="13.229167"
       id="rect904-9-7" />
    <rect
       x="23.623512"
       y="86.178574"
       width="15.686012"
       height="13.229167"
       id="rect1034" />
    <rect
       x="23.623512"
       y="86.178574"
       width="17.496737"
       height="14.209588"
       id="rect904-94" />
    <rect
       x="23.623512"
       y="86.178574"
       width="15.686012"
       height="13.229167"
       id="rect1064" />
    <rect
       x="23.623512"
       y="86.178574"
       width="15.686012"
       height="13.229167"
       id="rect904-94-2" />
    <rect
       x="23.623512"
       y="86.178574"
       width="15.686012"
       height="13.229167"
       id="rect1093" />
    <rect
       x="23.623512"
       y="86.178574"
       width="15.686012"
       height="13.229167"
       id="rect904-94-2-3" />
    <rect
       x="23.623512"
       y="86.178574"
       width="15.686012"
       height="13.229167"
       id="rect1122" />
    <rect
       x="23.623512"
       y="86.178574"
       width="15.686012"
       height="13.229167"
       id="rect904-94-2-6" />
    <rect
       x="23.623512"
       y="86.178574"
       width="15.686012"
       height="13.229167"
       id="rect1102" />
    <radialGradient
       inkscape:collect="always"
       xlink:href="#linearGradient974"
       id="radialGradient978"
       cx="255.9995"
       cy="256.00085"
       fx="255.9995"
       fy="256.00085"
       r="255.9995"
       gradientTransform="matrix(1,0,0,0.81940108,0,46.233476)"
       gradientUnits="userSpaceOnUse" />
  </defs>
  <sodipodi:namedview
     id="base"
     pagecolor="#ffffff"
     bordercolor="#666666"
     borderopacity="1.0"
     inkscape:pageopacity="0.0"
     inkscape:pageshadow="2"
     inkscape:zoom="1.3878979"
     inkscape:cx="367.9212"
     inkscape:cy="299.84704"
     inkscape:document-units="mm"
     inkscape:current-layer="layer1"
     inkscape:document-rotation="0"
     showgrid="false"
     inkscape:window-width="2320"
     inkscape:window-height="1432"
     inkscape:window-x="200"
     inkscape:window-y="0"
     inkscape:window-maximized="0"
     units="px"
     fit-margin-top="0"
     fit-margin-left="0"
     fit-margin-right="0"
     fit-margin-bottom="0" />
  <metadata
     id="metadata5">
    <rdf:RDF>
      <cc:Work
         rdf:about="">
        <dc:format>image/svg+xml</dc:format>
        <dc:type
           rdf:resource="http://purl.org/dc/dcmitype/StillImage" />
        <dc:title></dc:title>
      </cc:Work>
    </rdf:RDF>
  </metadata>
  <g
     inkscape:groupmode="layer"
     id="layer2"
     inkscape:label="レイヤー 2"
     transform="translate(14.828002,14.558401)">
    <rect
       style="display:inline;fill:#93c5fd;fill-opacity:1;stroke:none;stroke-width:0.6421;stroke-linecap:round;stroke-linejoin:round"
       id="rect874"
       width="212.17525"
       height="111.61443"
       x="-14.828002"
       y="-14.558401" />
  </g>
  <g
     inkscape:label="レイヤー 1"
     inkscape:groupmode="layer"
     id="layer1"
     style="display:inline"
     transform="translate(14.828002,14.558401)">
    <text
       xml:space="preserve"
       id="text902-5"
       style="font-style:normal;font-variant:normal;font-weight:normal;font-stretch:normal;font-size:12.8687px;line-height:1.25;font-family:sans-serif;-inkscape-font-specification:'sans-serif, Normal';font-variant-ligatures:normal;font-variant-caps:normal;font-variant-numeric:normal;font-variant-east-asian:normal;white-space:pre;shape-inside:url(#rect904-9);fill:#000000;fill-opacity:1;stroke:none;"
       transform="matrix(1.7743161,0,0,1.7348602,-42.572745,-91.778884)" />
    <g
       style="opacity:1"
       id="g953"
       transform="matrix(0.26458333,0,0,0.26458333,69.202537,112.93737)">
      <g
         id="g937" />
    </g>
    <g
       id="g893"
       transform="matrix(0.53758035,0,0,0.53758035,4.7229777,-19.66757)">
      <g
         style="opacity:1;fill:#0c0c6f;fill-opacity:1"
         id="g899"
         transform="matrix(0.2940201,0,0,0.2940201,85.705345,1.1076693)">
        <g
           id="g883"
           style="fill:#0c0c6f;fill-opacity:1">
          <path
             class="st0"
             d="m 165.683,106.525 c -0.183,0.094 -0.273,0.184 -0.363,0.367 -6.602,4.77 -8.16,14.031 -3.39,20.813 4.766,6.878 14.301,8.531 21.18,3.672 3.203,-2.29 5.406,-5.594 6.046,-9.262 0.918,-3.851 0.184,-8.25 -2.289,-11.922 -4.859,-6.879 -14.305,-8.523 -21.184,-3.668 z m 13.571,8.899 c -0.09,0.18 -0.367,0.367 -0.64,0.547 -2.294,1.652 -5.59,1.008 -7.242,-1.371 -1.008,-1.379 -1.191,-3.027 -0.641,-4.586 0.274,-1.101 0.918,-1.926 1.926,-2.66 2.379,-1.652 5.59,-1.102 7.242,1.282 1.558,2.112 1.191,5.045 -0.645,6.788 z"
             style="fill:#0c0c6f;fill-opacity:1"
             id="path873" />
          <path
             class="st0"
             d="m 221.434,173.737 c 1.102,-2.844 1.195,-4.035 1.285,-4.125 L 213,166.127 c 0,0 -0.641,1.649 -1.656,3.664 -0.91,2.114 -2.657,5.141 -4.95,8.531 -4.586,6.969 -12.102,15.219 -21.359,21.637 -2.386,1.562 -4.586,3.121 -6.973,4.406 -2.382,1.371 -4.766,2.66 -7.242,3.664 -4.77,2.11 -9.258,3.668 -13.386,4.586 -4.035,1.008 -7.43,1.649 -9.809,1.832 -2.386,0.184 -3.762,0.278 -3.762,0.278 l -0.274,10.27 c 0,0 6.598,1.008 16.23,-0.645 4.856,-0.824 10.45,-2.199 16.047,-4.586 2.84,-1.102 5.68,-2.473 8.434,-4.031 2.934,-1.469 5.774,-3.301 8.34,-4.953 10.546,-7.516 19.258,-17.606 23.934,-26.223 2.476,-4.219 3.942,-8.067 4.86,-10.82 z"
             style="fill:#0c0c6f;fill-opacity:1"
             id="path875" />
          <path
             class="st0"
             d="m 337.332,306.689 c 0,-0.274 -0.183,-0.55 -0.367,-0.734 l -5.41,-8.438 -5.133,-6.14 -0.918,-1.192 c -2.11,-2.476 -4.309,-4.402 -6.422,-6.695 -2.11,-2.199 -4.489,-4.214 -6.692,-6.234 -4.402,-4.125 -8.988,-7.699 -13.66,-11.461 -4.68,-3.394 -9.355,-7.062 -14.211,-10.176 -2.293,-1.558 -4.586,-3.117 -6.878,-4.496 -3.102,-2.008 -6.258,-3.766 -9.39,-5.679 -1.254,-0.766 -2.508,-1.528 -3.782,-2.286 -3.195,-1.914 -6.367,-3.977 -9.57,-5.789 -5.039,-2.84 -10.176,-5.5 -15.313,-8.156 l -7.882,-3.762 -4.129,-2.019 c -2.051,-0.855 -5.129,-1.77 -6.145,-2.187 -0.019,-0.024 -0.106,-0.051 -0.113,-0.074 l -0.004,0.027 c -0.035,-0.016 -0.126,-0.043 -0.153,-0.058 l -3.578,19.258 c 0.706,0.351 1.058,0.535 1.164,0.711 0.007,0.015 0.019,0.027 0.027,0.042 0.07,0.176 0,0.352 0,0.438 h 0.094 l 3.394,2.016 7.055,4.218 c 4.679,2.844 9.359,5.778 14.031,8.805 9.351,5.957 18.43,12.102 27.23,18.61 8.894,6.422 17.426,13.113 25.214,20.355 1.59,1.508 3.278,3.027 4.782,4.598 0.199,0.242 0.418,0.465 0.602,0.726 -1.614,0.09 -3.309,0.18 -4.922,0.18 -4.77,0.09 -9.441,0 -14.121,-0.183 -4.68,-0.274 -9.168,-0.641 -13.754,-1.192 -4.402,-0.644 -8.801,-1.469 -13.114,-2.476 -4.218,-1.188 -8.434,-2.57 -12.285,-4.309 -3.946,-1.653 -7.699,-3.668 -11.278,-6.145 -1.836,-1.102 -3.394,-2.477 -5.137,-3.762 -1.645,-1.371 -3.207,-2.93 -4.855,-4.398 l -14.582,13.207 c 3.578,4.305 7.426,8.34 12.012,11.824 4.312,3.574 9.168,6.691 14.214,9.262 5.043,2.75 10.266,4.586 15.586,6.422 5.226,1.554 10.542,2.835 15.859,3.847 5.23,0.824 10.55,1.558 15.863,2.016 5.23,0.367 10.453,0.457 15.68,0.55 7.523,0 15.039,-0.274 22.465,-0.641 2.75,-0.183 5.504,-0.277 8.254,-0.55 h 0.645 c 2.011,-0.278 3.938,-0.734 5.774,-1.926 0.55,-0.462 1.191,-0.829 1.648,-1.375 2.66,-2.477 3.946,-6.051 3.762,-9.629 -0.09,0 -0.09,-0.184 -0.09,-0.184 -0.182,-1.648 -0.549,-3.297 -1.467,-4.766 z"
             style="fill:#0c0c6f;fill-opacity:1"
             id="path877" />
          <path
             class="st0"
             d="m 379.875,354.826 c 2.566,0.094 5.41,0.461 8.16,1.102 11.278,2.199 20.906,8.985 33.742,15.863 12.652,6.875 26.957,10.086 38.328,9.992 11.461,0.094 21.183,-1.465 29.156,-3.941 7.977,-2.294 13.664,-5.598 17.332,-7.887 3.664,-2.293 5.406,-3.668 5.406,-3.668 l -5.32,-9.168 c 0,0 -1.829,0.828 -5.313,2.11 -3.578,1.187 -8.711,2.566 -15.317,3.301 -6.598,0.73 -15.034,0.367 -24.202,-1.012 -9.352,-1.558 -18.066,-4.949 -27.325,-11.277 -4.679,-3.114 -9.718,-7.426 -16.14,-11.645 -6.325,-4.218 -14.118,-8.344 -22.645,-10.91 -2.293,-0.734 -4.676,-1.374 -7.242,-1.832 0.824,-5.5 1.282,-9.718 1.469,-13.48 0.363,-4.582 0.363,-9.074 0.363,-13.848 -0.09,-4.586 -0.363,-9.442 -0.641,-13.934 -0.183,-1.465 -0.273,-2.84 -0.367,-4.214 -0.273,-2.754 -0.55,-5.414 -1.007,-8.715 l -0.278,-1.836 c -0.551,-3.847 -1.098,-7.699 -1.926,-11.278 -3.211,-17.328 -7.973,-34.382 -14.122,-50.613 -3.117,-8.89 -6.965,-17.602 -9.992,-24.203 -1.832,-3.942 -3.762,-7.793 -5.778,-11.649 l -1.102,-2.293 22.192,-29.062 0.644,-0.824 c 1.555,-2.016 2.477,-4.309 3.02,-7.062 1.195,-8.434 -4.672,-16.317 -13.02,-17.606 L 226.016,93.322 C 201.633,78.658 172.289,65.631 136.434,53.346 l -18.977,-6.418 c -3.301,-1.191 -6.973,-0.824 -9.992,0.918 -3.027,1.742 -5.23,4.679 -5.965,8.16 L 99.183,67.295 98.824,68.924 87.016,64.44 c -3.672,-1.371 -7.61,-1.004 -10.914,1.102 -3.203,2.015 -5.313,5.41 -5.68,9.262 l -2.019,23.473 c -4.586,53.09 -5.961,102.234 24.664,164.675 -0.274,1.742 -0.457,3.485 -0.641,5.23 -1.008,10.817 -1.558,21.543 -1.558,31.997 -0.094,5.414 0.183,10.82 0.457,16.598 l 0.367,3.39 c 0.367,4.309 0.825,8.711 1.653,13.11 l 0.183,1.382 c 0.367,2.469 0.734,4.95 1.375,7.242 l 0.55,2.106 c 0.458,2.289 1.008,4.402 1.742,6.602 l 0.793,2.386 0.102,0.379 c -0.82,0.453 -1.637,0.906 -2.453,1.27 -0.094,0.094 -0.184,0.183 -0.278,0.183 -5.042,2.293 -10.546,3.762 -15.402,4.676 -2.66,0.546 -6.148,0.641 -9.078,1.008 -1.832,0.094 -5.137,0.367 -7.52,0.273 -5.133,0.094 -9.812,-0.546 -14.214,-1.461 -8.707,-1.926 -16.043,-5.594 -22.555,-9.172 -6.511,-3.578 -12.102,-6.324 -16.23,-7.976 -4.031,-1.653 -5.957,-2.199 -5.957,-2.199 L 0,349.6 c 0,0 0.457,0.274 1.285,0.824 0.918,0.551 2.383,1.286 3.758,2.387 3.027,1.832 7.336,5.41 13.207,9.992 5.863,4.586 13.93,11 25.214,15.039 5.496,2.015 11.641,3.758 18.152,4.586 3.391,0.543 6.051,0.734 10.266,0.91 3.21,0 5.965,0.281 9.633,0 7.882,-0.454 15.496,-1.645 23.289,-4.305 2.844,-1.008 5.594,-2.11 8.25,-3.394 1.102,-0.551 2.294,-1.102 3.395,-1.649 3.484,-1.746 6.878,-3.668 9.992,-5.594 0.918,-0.55 1.742,-1.102 2.566,-1.558 3.945,-2.477 7.609,-4.496 11.187,-6.145 4.676,-2.106 9.258,-3.664 14.122,-4.582 0.457,-0.09 0.918,-0.184 1.374,-0.184 2.11,-0.461 4.313,-0.641 6.606,-0.824 3.114,-0.094 7.058,-0.278 9.809,-0.094 l 6.05,0.457 4.402,0.734 c 6.047,1.195 12.012,3.39 17.692,6.785 0.734,0.458 1.468,0.825 2.293,1.286 0,0.09 0.094,0.09 0.183,0.09 1.012,0.641 2.02,1.286 3.122,2.019 4.492,2.934 9.441,6.414 15.402,9.993 8.433,5.137 18.886,9.258 29.16,11.183 5.039,0.734 10.175,1.562 15.125,1.653 l 3.762,0.094 0.457,0.09 1.192,-0.09 h 0.828 l 1.558,-0.094 6.414,-0.367 c 11.285,-1.008 21.183,-3.668 30.718,-8.161 9.262,-4.398 16.778,-9.898 23.016,-14.027 0.09,0 0.09,-0.09 0.183,-0.09 0.734,-0.461 1.375,-0.918 2.016,-1.285 5.32,-3.578 10.086,-5.958 15.222,-7.7 2.934,-0.828 5.867,-1.652 9.074,-2.019 2.754,-0.734 7.156,-0.641 8.988,-1.008 l 5.778,0.09 h 2.843 l 2.016,0.183 h 0.276 z m -18.688,-54.863 c -6.949,-21.742 -15.171,-42.203 -23.031,-59.656 l 15.039,3.297 c 1.836,6.606 3.297,13.39 4.582,20.172 0.824,3.855 1.285,7.703 1.836,11.648 0.55,3.207 0.824,8.066 1.191,12.008 0.183,3.946 0.367,7.523 0.457,11.371 0,0.309 0,0.617 0,0.926 -0.019,0.078 -0.039,0.156 -0.074,0.234 z m -18.449,25.156 c -0.367,0.547 -0.824,1.008 -1.278,1.465 -5.871,1.469 -11.558,3.762 -16.781,6.418 -0.734,0.457 -1.469,0.824 -2.11,1.191 -0.734,0.367 -1.469,0.832 -2.203,1.195 -1.742,0.914 -3.394,1.832 -4.953,2.84 -7.516,4.77 -13.473,8.898 -19.344,11.461 -5.687,2.57 -12.379,4.039 -17.973,4.586 l -6.324,0.277 h -2.57 l -2.383,-0.094 c -3.578,0 -6.874,-0.457 -10.175,-0.824 -6.508,-1.191 -12.106,-3.301 -18.246,-6.782 -6.145,-3.394 -13.117,-8.714 -21.918,-13.484 -8.891,-4.676 -18.977,-7.977 -29.066,-9.352 l -7.794,-0.734 -6.144,-0.183 c -2.379,-0.09 -4.672,0 -6.782,0.094 l -3.305,-4.125 c -4.855,-6.145 -9.718,-12.653 -14.484,-19.531 l -1.008,-1.469 c -11.648,-16.684 -20.816,-32.09 -28.058,-46.762 -1.832,-3.668 -3.574,-7.246 -5.137,-10.817 C 92.515,189.966 93.432,148.887 97.468,100.845 l 0.172,-1.055 0.015,-0.046 15.489,5.863 c 3.851,1.469 8.074,-0.825 8.898,-4.856 l 2.473,-12.062 0.586,-2.683 c 3.114,1.465 7.41,3.473 12.801,6.035 3.789,1.89 8.222,4.137 12.926,6.687 0.527,0.305 1.008,0.543 1.543,0.859 -8.782,9.902 -10.058,24.922 -2.09,36.282 9.262,13.203 27.691,16.504 40.984,7.148 4.543,-3.175 7.906,-7.441 9.934,-12.156 0.019,-0.043 0.054,-0.078 0.074,-0.121 8.617,6.507 17.965,14.301 24.375,21.996 7.43,10.274 6.148,29.801 13.851,41.906 4.855,6.969 15.492,22.374 27.32,39.976 7.43,4.496 14.856,9.172 22.192,13.938 4.214,2.844 8.16,5.871 12.102,8.707 l 2.839,2.114 2.57,2.199 c 3.852,3.027 7.797,6.144 11.461,9.629 l 1.375,1.191 c 0.824,0.734 1.558,1.375 2.293,2.11 1.102,1.007 2.294,2.109 3.395,3.301 0.64,0.734 1.281,1.374 2.015,2.109 0.461,0.462 0.914,0.918 1.371,1.375 1.199,1.102 2.293,2.199 3.305,3.574 l 6.234,7.43 0.461,0.734 5.406,8.34 c 4.865,7.524 4.131,17.148 -1.1,23.75 z M 194.386,125.693 c -1.469,4.121 -4.129,7.883 -7.886,10.543 -9.539,6.781 -22.832,4.398 -29.434,-5.137 -6.05,-8.618 -4.77,-20.352 2.754,-27.418 0.727,-0.726 1.555,-1.374 2.477,-2.011 2.656,-1.926 5.774,-3.118 8.89,-3.578 7.699,-1.191 15.774,2.02 20.539,8.711 0.274,0.457 0.551,0.918 0.824,1.465 3.212,5.413 3.763,11.828 1.836,17.425 z m 142.649,71.297 c 0.058,0.25 0.18,0.465 0.211,0.754 l -22.566,-4.938 c -3.387,-6.051 -5.497,-9.626 -5.958,-10.27 l -0.367,-0.73 -4.675,-6.695 c -1.469,-2.11 -2.934,-4.309 -4.493,-6.418 -1.191,-1.832 -2.566,-3.758 -3.941,-5.59 l 29.25,6.414 c 0.09,1.375 0.551,2.934 1.286,4.313 l 0.273,0.274 c 1.653,3.21 3.578,6.875 5.317,10.359 1.742,3.668 3.39,7.34 5.043,10.91 0.249,0.563 0.429,1.086 0.62,1.617 z m 13.598,37.523 -16.695,-3.652 c -0.551,-1.102 -1.008,-2.293 -1.649,-3.301 -0.094,-0.183 -0.277,-0.461 -0.367,-0.824 -4.398,-9.352 -8.621,-17.61 -12.105,-24.39 l 21.363,4.679 c 1.469,3.57 2.75,7.149 4.035,10.726 1.808,5.004 3.414,9.962 4.926,15.016 0.152,0.579 0.351,1.169 0.492,1.746 z m -5.656,-96.1 -18.098,22.855 c -0.09,0 -0.184,0.183 -0.184,0.274 l -38.969,-8.438 c -7.703,-9.902 -16.687,-19.801 -27.875,-29.703 l 57.555,10.098 z m -221.86,196.882 c -0.71,-2.094 -0.992,-4.519 -1.347,-6.691 -1.746,-9.258 -2.386,-18.985 -2.844,-28.793 v -0.458 c 3.02,4.77 6.23,9.539 9.719,14.394 1.832,2.57 3.574,5.137 5.41,7.61 -1.836,2.703 -3.824,5.398 -5.863,8.082 -1.559,1.922 -3.184,3.852 -5.075,5.856 z"
             style="fill:#0c0c6f;fill-opacity:1"
             id="path879" />
          <path
             class="st0"
             d="m 254.016,426.62939 c -1.063,0.035 -2.157,0.168 -3.165,0.122 -4.129,-0.008 -7.843,-0.391 -11.258,-1.246 -6.722,-1.722 -12.938,-5.378 -17.875,-7.351 -2.359,-1.008 -4.683,-1.727 -5.926,-2.043 -1.305,-0.324 -1.996,-0.5 -1.996,-0.5 l -2.77,6.012 c 0,0 0.582,0.418 1.68,1.203 1.141,0.793 2.246,1.882 4.11,3.41 1.793,1.535 3.882,3.555 6.664,5.852 2.746,2.305 6.246,5.007 10.726,7.179 4.434,2.25 9.73,3.934 15.254,4.657 1.39,0.262 2.762,0.32 4.176,0.476 l 1.058,0.098 c 0.352,0.012 -0.039,0.043 0.926,0.039 l 0.473,0.016 1.898,0.062 c 1.363,0.015 2.359,0.148 4.051,-0.02 1.64,-0.16 3.297,-0.316 4.965,-0.476 6.277,-0.922 13.074,-3.074 18.594,-6.391 5.535,-3.226 9.898,-6.398 13.898,-8.367 3.906,-2.144 7.82,-3.374 12.344,-3.906 2.14,-0.219 4.766,-0.477 6.672,-0.524 l 4,0.012 2.878,0.242 c 4.07,0.542 7.926,1.461 11.672,3.16 3.734,1.699 7.68,3.977 11.832,6.008 4.114,2.07 8.41,3.672 12.285,4.398 3.84,0.878 7.246,1.004 9.946,0.942 2.722,0.094 4.789,-0.395 6.195,-0.532 1.394,-0.191 2.141,-0.297 2.141,-0.297 v -6.617 c 0,0 -0.66,-0.16 -1.902,-0.465 -1.226,-0.309 -3.046,-0.695 -5.195,-1.43 -2.184,-0.629 -4.691,-1.641 -7.34,-2.981 -2.687,-1.297 -5.34,-3.23 -8.422,-5.566 -3.062,-2.359 -6.512,-5.515 -11.25,-8.492 -4.691,-3.027 -10.511,-5.715 -16.855,-6.957 -1.668,-0.27 -3.344,-0.547 -5.031,-0.825 l -4.082,-0.371 c -3.515,-0.258 -6.406,-0.195 -9.77,0.11 -6.507,0.527 -13.613,2.481 -19.656,5.61 -6.023,3.203 -10.656,6.898 -14.66,9.316 -4.004,2.367 -7.558,4.114 -11.676,5.09 l -2.808,0.566 c -0.879,0.222 -2.458,0.262 -3.63,0.445 l -1.886,0.219 -0.469,0.058 c 0.649,-0.012 -0.05,0.008 -0.012,0.012 z"
             style="fill:#0c0c6f;fill-opacity:1"
             id="path881" />
        </g>
      </g>
      <path
         style="fill:#e9f3fe;fill-opacity:1;stroke:#e9f3fe;stroke-width:1.2;stroke-linecap:round;stroke-linejoin:round;stroke-miterlimit:4;stroke-dasharray:none;stroke-opacity:1"
         d="m 159.39079,104.34958 c -0.87133,-0.28126 -3.78386,-1.83573 -6.47231,-3.45439 -5.66755,-3.412322 -9.93908,-4.825962 -14.58242,-4.825962 -3.25039,0 -3.33619,-0.0443 -5.42132,-2.79485 C 123.11163,80.342519 117.10362,67.86001 115.07027,56.199928 114.20256,51.224103 113.8659,36.095159 114.5471,32.689189 l 0.3492,-1.746027 2.48579,0.893885 c 3.35599,1.20681 4.29989,0.716985 4.77933,-2.480196 l 0.39684,-2.646243 3.67634,1.812889 3.67635,1.812889 -0.86445,1.732831 c -0.57025,1.14309 -0.77443,2.81833 -0.59995,4.922348 0.28349,3.418498 1.6528,5.476633 4.69775,7.060918 3.36524,1.750928 8.68959,0.567484 10.8616,-2.414204 l 1.18081,-1.62098 3.63195,3.460616 c 3.50401,3.338705 3.67994,3.648752 4.99406,8.800919 1.17801,4.618563 1.94503,6.188923 5.67529,11.619442 4.02831,5.864404 4.70103,6.537334 10.18516,10.188271 10.62494,7.073307 17.48528,14.580031 17.48528,19.132721 0,2.62064 -0.17625,2.79093 -5.88392,5.68515 -2.42711,1.230722 -5.72581,3.003202 -7.33043,3.938832 -2.50294,1.45944 -3.63165,1.72365 -7.94329,1.85943 -2.76419,0.0871 -5.73869,-0.0719 -6.61002,-0.3531 z m 22.39668,-7.651672 c 2.85879,-0.5522 3.58349,-1.30954 3.59679,-3.75881 0.0193,-3.55202 -6.97033,-10.966543 -16.16546,-17.148176 -5.63226,-3.786416 -16.59759,-9.698157 -18.02353,-9.717032 -0.70591,-0.0094 -1.05771,0.770043 -1.35326,2.998019 -0.21966,1.655854 -0.31996,3.080814 -0.22291,3.166579 0.0971,0.08576 2.02992,1.276686 4.29522,2.646492 4.93607,2.984787 14.38199,9.727415 17.65175,12.600041 2.26465,1.989607 2.29741,2.068557 0.86716,2.089807 -3.35955,0.05 -11.44548,-1.27651 -14.30619,-2.346835 -1.6836,-0.629922 -3.97501,-1.908282 -5.09202,-2.840799 l -2.03093,-1.695499 -2.22233,1.785914 c -1.22228,0.982256 -2.22233,2.118134 -2.22233,2.524179 0,1.23148 4.78357,4.99983 8.53168,6.72097 3.13504,1.43962 6.96049,2.48927 11.47363,3.14823 2.90994,0.42487 12.70354,0.31352 15.22273,-0.17308 z M 137.42902,65.993384 c 5.77442,-2.201975 11.6182,-7.819442 13.29884,-12.78381 0.7004,-2.068901 0.41679,-2.674187 -1.52644,-3.257744 -0.92751,-0.278533 -1.36345,0.05618 -2.02131,1.551946 -1.24233,2.824654 -6.93457,8.217482 -10.57826,10.021836 -1.75508,0.869125 -4.46904,1.749754 -6.03101,1.95696 -2.77924,0.368676 -2.83995,0.420575 -2.83995,2.428091 v 2.051364 l 3.37291,-0.421416 c 1.85511,-0.231779 4.70144,-0.928031 6.32522,-1.547227 z"
         id="path3004" />
      <path
         style="fill:#ffffff;fill-opacity:1;stroke:none;stroke-width:2.82706;stroke-linecap:round;stroke-linejoin:round;stroke-miterlimit:4;stroke-dasharray:none;stroke-opacity:0.327434"
         d="m 135.42108,42.016401 c -1.74493,-0.481206 -3.19258,-1.722393 -4.00216,-3.431385 -0.43426,-0.916684 -0.4685,-1.102131 -0.4685,-2.53661 0,-1.456141 0.0289,-1.606388 0.48942,-2.541795 0.62042,-1.260241 1.65736,-2.299999 2.90758,-2.915482 0.82261,-0.404966 1.18323,-0.491553 2.26206,-0.543131 1.61084,-0.07702 2.60308,0.191907 3.84575,1.042309 3.01568,2.063733 3.49715,6.308721 1.03139,9.093477 -1.45193,1.639774 -3.9872,2.405765 -6.06554,1.832617 z m 3.1478,-1.700237 c 2.85044,-1.066488 3.82274,-4.641136 1.93489,-7.113583 -0.758,-0.992717 -2.13655,-1.630787 -3.51095,-1.62505 -1.71242,0.0071 -3.3053,0.975437 -4.09309,2.488147 -0.42598,0.817933 -0.52348,2.582231 -0.19705,3.565053 0.7692,2.315829 3.50578,3.568582 5.8662,2.685433 z"
         id="path3006" />
      <path
         style="fill:#ffffff;fill-opacity:1;stroke:none;stroke-width:2.82706;stroke-linecap:round;stroke-linejoin:round;stroke-miterlimit:4;stroke-dasharray:none;stroke-opacity:0.327434"
         d="m 136.79881,35.243126 c -1.42067,-0.613938 -0.99445,-2.721977 0.55036,-2.721977 1.03172,0 1.70707,0.987172 1.31798,1.926523 -0.32189,0.777118 -1.12225,1.117873 -1.86834,0.795454 z"
         id="path3008" />
      <path
         style="fill:#e9f3fe;fill-opacity:1;stroke:none;stroke-width:2.82706;stroke-linecap:round;stroke-linejoin:round;stroke-miterlimit:4;stroke-dasharray:none;stroke-opacity:0.327434"
         d="m 176.04618,47.290671 c -3.10916,-0.676892 -5.69874,-1.281661 -5.75462,-1.343934 -0.0559,-0.06229 -0.78832,-0.940654 -1.62763,-1.951949 -0.8393,-1.011298 -2.57456,-2.883968 -3.85613,-4.161485 -1.53415,-1.529306 -2.21275,-2.295877 -1.98653,-2.244063 0.18897,0.04329 4.11665,0.737244 8.72816,1.542138 10.51142,1.834665 15.28494,2.685708 15.3448,2.735735 0.0368,0.03073 -4.75808,6.190636 -5.10682,6.560664 -0.0486,0.05147 -2.63208,-0.460217 -5.74123,-1.137106 z"
         id="path3010" />
      <path
         style="fill:#e9f3fe;fill-opacity:1;stroke:none;stroke-width:2.82706;stroke-linecap:round;stroke-linejoin:round;stroke-miterlimit:4;stroke-dasharray:none;stroke-opacity:0.327434"
         d="m 181.41565,58.430659 -3.07839,-0.687538 -1.19267,-1.98316 c -0.65597,-1.090742 -1.89336,-2.976075 -2.74976,-4.189633 -0.8564,-1.213559 -1.53338,-2.233207 -1.5044,-2.26589 0.029,-0.03267 1.84926,0.330353 4.04506,0.806734 3.76159,0.81608 4.00099,0.88754 4.14144,1.236199 0.082,0.203532 0.59641,1.263675 1.14314,2.355876 0.98264,1.963007 2.49462,5.214717 2.49462,5.365006 0,0.104389 0.17168,0.137565 -3.29904,-0.637594 z"
         id="path3012" />
      <path
         style="fill:#e9f3fe;fill-opacity:1;stroke:none;stroke-width:2.82706;stroke-linecap:round;stroke-linejoin:round;stroke-miterlimit:4;stroke-dasharray:none;stroke-opacity:0.327434"
         d="m 186.06661,69.392673 -2.10488,-0.467527 -1.9784,-4.03025 c -1.08812,-2.216638 -1.95463,-4.054019 -1.92558,-4.083073 0.029,-0.02904 1.3686,0.236048 2.97676,0.58912 l 2.92394,0.641947 0.33953,0.868279 c 0.42338,1.082737 1.84643,5.201375 2.14797,6.216758 0.27244,0.917429 0.46347,0.896176 -2.37934,0.264746 z"
         id="path3014" />
      <path
         style="fill:#e9f3fe;fill-opacity:1;stroke:none;stroke-width:2.82706;stroke-linecap:round;stroke-linejoin:round;stroke-miterlimit:4;stroke-dasharray:none;stroke-opacity:0.327434"
         d="m 191.4195,87.572539 c -0.84626,-2.726515 -3.89739,-10.640749 -5.42997,-14.084624 -0.36003,-0.80904 -0.60529,-1.489806 -0.54502,-1.512813 0.11637,-0.04442 3.96829,0.788254 4.0429,0.873964 0.24758,0.284448 1.58455,6.962638 1.92428,9.611819 0.22961,1.790469 0.46737,5.957463 0.33992,5.957463 -0.0382,0 -0.18773,-0.38061 -0.33211,-0.845809 z"
         id="path3016" />
      <path
         style="fill:#e9f3fe;fill-opacity:1;stroke:none;stroke-width:2.82706;stroke-linecap:round;stroke-linejoin:round;stroke-miterlimit:4;stroke-dasharray:none;stroke-opacity:0.327434"
         d="m 121.83894,99.136238 c -0.0434,-0.19111 -0.20907,-1.14181 -0.36825,-2.11266 -0.25687,-1.56672 -0.3545,-2.51964 -0.67816,-6.6194 l -0.0813,-1.02969 0.54483,0.80904 c 0.29966,0.44497 1.26895,1.8564 2.15398,3.13653 l 1.60914,2.32748 -1.24761,1.64415 c -0.68618,0.90429 -1.384,1.76743 -1.55069,1.9181 -0.29746,0.26883 -0.30456,0.26746 -0.38194,-0.0735 z"
         id="path3018" />
    </g>
    <text
       xml:space="preserve"
       style="font-style:normal;font-weight:normal;font-size:8.23299px;line-height:1.25;font-family:sans-serif;fill:#000000;fill-opacity:1;stroke:none;stroke-width:0.205825"
       x="-1.9665962"
       y="87.6819"
       id="text897"><tspan
         sodipodi:role="line"
         x="-1.9665962"
         y="87.6819"
         style="font-style:normal;font-variant:normal;font-weight:bold;font-stretch:normal;font-size:8.7819px;font-family:Arial;-inkscape-font-specification:'Arial, Bold';font-variant-ligatures:normal;font-variant-caps:normal;font-variant-numeric:normal;font-variant-east-asian:normal;stroke-width:0.205825"
         id="tspan899">The next-gen Grasshopper optimization tool.</tspan></text>
    <text
       xml:space="preserve"
       style="font-style:normal;font-weight:normal;font-size:20.6094px;line-height:1.25;font-family:sans-serif;display:inline;fill:#000000;fill-opacity:1;stroke:none;stroke-width:0.515236"
       x="59.046638"
       y="72.186615"
       id="text897-2"><tspan
         sodipodi:role="line"
         x="59.046638"
         y="72.186615"
         style="font-style:normal;font-variant:normal;font-weight:bold;font-stretch:normal;font-size:21.9834px;font-family:Arial;-inkscape-font-specification:'Arial, Bold';font-variant-ligatures:normal;font-variant-caps:normal;font-variant-numeric:normal;font-variant-east-asian:normal;stroke-width:0.515236"
         id="tspan899-8">Tunny</tspan></text>
  </g>
  <style
     type="text/css"
     id="style871">
	.st0{fill:#374149;}
</style>
  <style
     type="text/css"
     id="style901">
	.st0{fill:#374149;}
</style>
  <style
     type="text/css"
     id="style925">
	.st0{fill:#374149;}
</style>
</svg>
